<?xml version="1.0" encoding="UTF-8"?>
<svg viewBox="0 0 664.86 807.14" xmlns="http://www.w3.org/2000/svg">
<path d="M406.519.444c-.032 48.469-59.647 61.601-99 56.13-11.472-1.595-23.465-3.626-32.999-10.74-14.999-11.192-14.148-28.21-18.001-44.39l-15.933 14.039-3.216 10.547-41.851 17.835-85 35.579v-8c-10.882 2.976-20.594 8.914-30 14.95-17.85 11.455-36.029 27.452-46.663 46.05-9.621 16.827-12.042 36.19-14.765 55l-8.738 66c-2.738 25.563-8.732 51.328-9.834 77l61 7.285 60 6.715c.06-7.19.507-16.086 2.572-22.995.785-2.625 3.038-5.973 6.154-4.115 5.805 3.46 2.981 16.522 3.363 22.11 1.435 20.959.566 42.058 2 63 3.639 53.144 1.229 106.805-.075 160-.993 40.539.666 81.553-2.104 122-1.992 29.088-2.899 58.835-2.91 88-.002 6.526-4.525 23.238.603 28.258 2.858 2.798 8.779 1.703 12.397 1.746 9.375.112 19.686.183 29 1.282 45.062 5.317 92.604 1.714 138 1.714h171c14.324 0 28.753-1.474 43-2.83 4.825-.459 12.675 1.246 16.397-2.734 4.955-5.298.637-20.793.603-27.436-.142-27.336-4.911-54.659-4.999-82-.097-30.265-3.636-60.759-4.961-91-2.201-50.269-3.286-100.717-2.054-151 .433-17.667-.829-35.407.845-53 2.126-22.342 4.134-45.558 4.17-68 .007-4.336-.836-20.13 4.224-21.793 3.707-1.218 5.563 4.197 6.143 6.793 2.126 9.515 2.826 19.408 4.633 29l84-18.003c6.506-1.347 25.934-2.283 29.958-7.725 2.605-3.524-1.328-13.321-2.168-17.272-3.458-16.265-6.129-32.693-9.39-49-10.997-54.991-18.571-121.832-66.4-158.346-10.911-8.33-25.175-17.613-39-19.654v8l-125-57c2.475-10.432-6.333-17.51-15-22m-162 34l4 11-136 54c-.135-3.135-1.689-7.663-.382-10.606 2.79-6.283 23.087-11.013 29.382-13.454 21.772-8.445 43.465-17.327 65-26.363 11.985-5.029 25.169-12.366 38-14.576m301 72l-55-24.691-79-36.309 5-10 37 16.691 63 29.061 27.972 13.885z" fill="#00f" stroke="#000"/>
</svg>
